<svg xmlns="http://www.w3.org/2000/svg" xmlns:xlink="http://www.w3.org/1999/xlink" viewBox="0 0 330 330"><defs><style>.cls-1{fill:url(#linear-gradient);}.cls-2,.cls-3{fill:none;stroke-miterlimit:10;stroke-width:3px;}.cls-2{stroke:url(#linear-gradient-2);}.cls-3{stroke:url(#linear-gradient-3);}.cls-4{fill:url(#linear-gradient-4);}.cls-5{fill:url(#linear-gradient-5);}.cls-6{fill:url(#linear-gradient-6);}.cls-7{fill:url(#linear-gradient-7);}.cls-8{fill:url(#linear-gradient-8);}.cls-9{fill:url(#linear-gradient-9);}.cls-10{fill:url(#linear-gradient-10);}.cls-11{fill:url(#linear-gradient-11);}.cls-12{fill:url(#linear-gradient-12);}.cls-13{fill:url(#linear-gradient-13);}.cls-14{fill:url(#linear-gradient-14);}.cls-15{fill:url(#linear-gradient-15);}.cls-16{fill:url(#linear-gradient-16);}.cls-17{fill:url(#linear-gradient-17);}.cls-18{fill:url(#linear-gradient-18);}.cls-19{fill:url(#linear-gradient-19);}.cls-20{fill:url(#linear-gradient-20);}.cls-21{fill:url(#linear-gradient-21);}.cls-22{fill:url(#linear-gradient-22);}.cls-23{fill:url(#linear-gradient-23);}.cls-24{fill:url(#linear-gradient-24);}.cls-25{fill:url(#linear-gradient-25);}.cls-26{fill:url(#linear-gradient-26);}.cls-27{fill:url(#linear-gradient-27);}.cls-28{fill:url(#linear-gradient-28);}.cls-29{fill:url(#linear-gradient-29);}.cls-30{fill:url(#linear-gradient-30);}.cls-31{fill:url(#linear-gradient-31);}.cls-32{fill:url(#linear-gradient-32);}.cls-33{fill:#fcfbf9;}.cls-34{fill:#282828;}.cls-35{fill:url(#linear-gradient-33);}.cls-36{fill:#fcfafb;}</style><linearGradient id="linear-gradient" x1="289.27" y1="266.4" x2="69.85" y2="30.59" gradientTransform="matrix(1, 0, 0, -1, 0, 297.85)" gradientUnits="userSpaceOnUse"><stop offset="0" stop-color="#c0bfbd"/><stop offset="0.58" stop-color="#fdfbfc"/><stop offset="0.66" stop-color="#f9f7f8"/><stop offset="0.73" stop-color="#edebec"/><stop offset="0.81" stop-color="#dad8d9"/><stop offset="0.88" stop-color="#bfbdbe"/><stop offset="0.95" stop-color="#9c9a9b"/><stop offset="1" stop-color="#7e7c7d"/></linearGradient><linearGradient id="linear-gradient-2" x1="35.42" y1="223.58" x2="294.58" y2="42.12" gradientTransform="matrix(1, 0, 0, -1, 0, 297.85)" gradientUnits="userSpaceOnUse"><stop offset="0" stop-color="#282828"/><stop offset="0.28" stop-color="#2f2f2f" stop-opacity="0.95"/><stop offset="0.38" stop-color="#4b4a4a" stop-opacity="0.78"/><stop offset="0.45" stop-color="#7a7978" stop-opacity="0.49"/><stop offset="0.51" stop-color="#bdbcba" stop-opacity="0.07"/><stop offset="0.51" stop-color="#c8c7c5" stop-opacity="0"/><stop offset="0.6" stop-color="#d4d4d2" stop-opacity="0.22"/><stop offset="0.71" stop-color="#e3e3e2" stop-opacity="0.5"/><stop offset="0.81" stop-color="#efefee" stop-opacity="0.71"/><stop offset="0.89" stop-color="#f8f8f7" stop-opacity="0.87"/><stop offset="0.96" stop-color="#fdfdfd" stop-opacity="0.96"/><stop offset="1" stop-color="#fff"/></linearGradient><linearGradient id="linear-gradient-3" x1="270.54" y1="27.31" x2="59.46" y2="238.39" gradientTransform="matrix(1, 0, 0, -1, 0, 297.85)" gradientUnits="userSpaceOnUse"><stop offset="0" stop-color="#282828"/><stop offset="0.17" stop-color="#4e4e4d" stop-opacity="0.78"/><stop offset="0.45" stop-color="#b4b3b2" stop-opacity="0.17"/><stop offset="0.51" stop-color="#d1d0ce" stop-opacity="0"/><stop offset="0.57" stop-color="#d8d7d5" stop-opacity="0.15"/><stop offset="0.69" stop-color="#e6e5e4" stop-opacity="0.45"/><stop offset="0.8" stop-color="#f0eff0" stop-opacity="0.68"/><stop offset="0.89" stop-color="#f8f7f8" stop-opacity="0.86"/><stop offset="0.96" stop-color="#fdfcfd" stop-opacity="0.96"/><stop offset="1" stop-color="#fffeff"/></linearGradient><linearGradient id="linear-gradient-4" x1="274.58" y1="250.62" x2="81.1" y2="42.68" gradientTransform="matrix(1, 0, 0, -1, 0, 297.85)" gradientUnits="userSpaceOnUse"><stop offset="0" stop-color="#bbbab8"/><stop offset="0.74" stop-color="#fbfaf8"/><stop offset="0.79" stop-color="#eae9e7"/><stop offset="0.88" stop-color="#bdbcbb"/><stop offset="1" stop-color="#7c7a7b"/></linearGradient><linearGradient id="linear-gradient-5" x1="78.45" y1="63.74" x2="72.95" y2="73.26" gradientUnits="userSpaceOnUse"><stop offset="0" stop-color="#fbfaf8"/><stop offset="0.18" stop-color="#ecebe9"/><stop offset="0.46" stop-color="#bcbbb9"/><stop offset="1" stop-color="#7a7879"/></linearGradient><linearGradient id="linear-gradient-6" x1="104.45" y1="45.74" x2="98.95" y2="55.26" xlink:href="#linear-gradient-5"/><linearGradient id="linear-gradient-7" x1="58.45" y1="86.74" x2="52.95" y2="96.26" xlink:href="#linear-gradient-5"/><linearGradient id="linear-gradient-8" x1="44.45" y1="113.74" x2="38.95" y2="123.26" xlink:href="#linear-gradient-5"/><linearGradient id="linear-gradient-9" x1="36.45" y1="143.74" x2="30.95" y2="153.26" xlink:href="#linear-gradient-5"/><linearGradient id="linear-gradient-10" x1="36.45" y1="174.74" x2="30.95" y2="184.26" xlink:href="#linear-gradient-5"/><linearGradient id="linear-gradient-11" x1="43.45" y1="204.74" x2="37.95" y2="214.26" xlink:href="#linear-gradient-5"/><linearGradient id="linear-gradient-12" x1="56.45" y1="232.74" x2="50.95" y2="242.26" xlink:href="#linear-gradient-5"/><linearGradient id="linear-gradient-13" x1="75.45" y1="257.74" x2="69.95" y2="267.26" xlink:href="#linear-gradient-5"/><linearGradient id="linear-gradient-14" x1="101.45" y1="275.74" x2="95.95" y2="285.26" xlink:href="#linear-gradient-5"/><linearGradient id="linear-gradient-15" x1="129.45" y1="288.74" x2="123.95" y2="298.26" xlink:href="#linear-gradient-5"/><linearGradient id="linear-gradient-16" x1="159.45" y1="293.74" x2="153.95" y2="303.26" xlink:href="#linear-gradient-5"/><linearGradient id="linear-gradient-17" x1="190.45" y1="292.74" x2="184.95" y2="302.26" xlink:href="#linear-gradient-5"/><linearGradient id="linear-gradient-18" x1="220.45" y1="283.74" x2="214.95" y2="293.26" xlink:href="#linear-gradient-5"/><linearGradient id="linear-gradient-19" x1="247.45" y1="268.74" x2="241.95" y2="278.26" xlink:href="#linear-gradient-5"/><linearGradient id="linear-gradient-20" x1="270.45" y1="246.74" x2="264.95" y2="256.26" xlink:href="#linear-gradient-5"/><linearGradient id="linear-gradient-21" x1="287.45" y1="220.74" x2="281.95" y2="230.26" xlink:href="#linear-gradient-5"/><linearGradient id="linear-gradient-22" x1="298.45" y1="191.74" x2="292.95" y2="201.26" xlink:href="#linear-gradient-5"/><linearGradient id="linear-gradient-23" x1="301.45" y1="161.74" x2="295.95" y2="171.26" xlink:href="#linear-gradient-5"/><linearGradient id="linear-gradient-24" x1="297.45" y1="132.74" x2="291.95" y2="142.26" xlink:href="#linear-gradient-5"/><linearGradient id="linear-gradient-25" x1="288.45" y1="103.74" x2="282.95" y2="113.26" xlink:href="#linear-gradient-5"/><linearGradient id="linear-gradient-26" x1="272.45" y1="77.74" x2="266.95" y2="87.26" xlink:href="#linear-gradient-5"/><linearGradient id="linear-gradient-27" x1="249.45" y1="56.74" x2="243.95" y2="66.26" xlink:href="#linear-gradient-5"/><linearGradient id="linear-gradient-28" x1="223.45" y1="39.74" x2="217.95" y2="49.26" xlink:href="#linear-gradient-5"/><linearGradient id="linear-gradient-29" x1="194.45" y1="30.74" x2="188.95" y2="40.26" xlink:href="#linear-gradient-5"/><linearGradient id="linear-gradient-30" x1="163.45" y1="28.74" x2="157.95" y2="38.26" xlink:href="#linear-gradient-5"/><linearGradient id="linear-gradient-31" x1="132.95" y1="32.87" x2="126.45" y2="44.13" xlink:href="#linear-gradient-5"/><linearGradient id="linear-gradient-32" x1="132.45" y1="33.74" x2="126.95" y2="43.26" xlink:href="#linear-gradient-5"/><linearGradient id="linear-gradient-33" x1="209.65" y1="61.33" x2="101.4" y2="248.81" gradientUnits="userSpaceOnUse"><stop offset="0" stop-color="#d5d0d1"/><stop offset="0.1" stop-color="#eae7e7"/><stop offset="0.19" stop-color="#f7f6f4"/><stop offset="0.26" stop-color="#fcfbf9"/><stop offset="0.58" stop-color="#b2b0b1"/><stop offset="1" stop-color="#7c7a7b"/></linearGradient></defs><g id="Layer_2" data-name="Layer 2"><g id="Silver_Medal" data-name="Silver Medal"><circle class="cls-1" cx="165" cy="165" r="165"/><ellipse class="cls-2" cx="165" cy="165" rx="156.5" ry="157.03"/><ellipse class="cls-3" cx="165" cy="165" rx="147.5" ry="148"/><circle class="cls-4" cx="165" cy="165" r="145.5"/><g id="Dots"><circle class="cls-5" cx="75.7" cy="68.5" r="5.5"/><circle class="cls-6" cx="101.7" cy="50.5" r="5.5"/><circle class="cls-7" cx="55.7" cy="91.5" r="5.5"/><circle class="cls-8" cx="41.7" cy="118.5" r="5.5"/><circle class="cls-9" cx="33.7" cy="148.5" r="5.5"/><circle class="cls-10" cx="33.7" cy="179.5" r="5.5"/><circle class="cls-11" cx="40.7" cy="209.5" r="5.5"/><circle class="cls-12" cx="53.7" cy="237.5" r="5.5"/><circle class="cls-13" cx="72.7" cy="262.5" r="5.5"/><circle class="cls-14" cx="98.7" cy="280.5" r="5.5"/><circle class="cls-15" cx="126.7" cy="293.5" r="5.5"/><circle class="cls-16" cx="156.7" cy="298.5" r="5.5"/><circle class="cls-17" cx="187.7" cy="297.5" r="5.5"/><circle class="cls-18" cx="217.7" cy="288.5" r="5.5"/><circle class="cls-19" cx="244.7" cy="273.5" r="5.5"/><circle class="cls-20" cx="267.7" cy="251.5" r="5.5"/><circle class="cls-21" cx="284.7" cy="225.5" r="5.5"/><circle class="cls-22" cx="295.7" cy="196.5" r="5.5"/><circle class="cls-23" cx="298.7" cy="166.5" r="5.5"/><circle class="cls-24" cx="294.7" cy="137.5" r="5.5"/><circle class="cls-25" cx="285.7" cy="108.5" r="5.5"/><circle class="cls-26" cx="269.7" cy="82.5" r="5.5"/><circle class="cls-27" cx="246.7" cy="61.5" r="5.5"/><circle class="cls-28" cx="220.7" cy="44.5" r="5.5"/><circle class="cls-29" cx="191.7" cy="35.5" r="5.5"/><circle class="cls-30" cx="160.7" cy="33.5" r="5.5"/><circle class="cls-31" cx="129.7" cy="38.5" r="6.5"/><circle class="cls-32" cx="129.7" cy="38.5" r="5.5"/></g><path id="Light" class="cls-33" d="M135.2,181a25.91,25.91,0,0,0-2.84-1.89,26.69,26.69,0,0,0-7.77-3c-.89-3.37-7.11-9.28-9.91-22-2-9-.47-13.37-4.47-18.45-3.11-3.95-5-2.6-11.48-7.15C88.57,121.31,87.91,114.15,82,113.89c-4.27-.18-9,3.27-9.23,6.55-.25,4.09,6.76,5.15,15.66,14,3.26,3.24,8.43,8.37,11.31,16.31,3.34,9.22.08,12.53,3.47,18.49l.31.5a31.28,31.28,0,0,1-6.08-3.13c-11.33-7.35-13.93-9.7-16.3-8.38-3,1.69-4,8.47-1.83,13.25,2.64,5.95,9,6.57,17.85,10.32,8.44,3.56,5.57-2.31,24.09,12.21a163.2,163.2,0,0,1,16,15c2.22,2.4,2,5.69,2.31,9.4,1.86,24-24.08,29.59-18.93,38.45,9.08,15.61,71.15,16.13,79.16,1.83,4.94-8.8-20.81-19.72-22.29-43.63a52.24,52.24,0,0,1,7.61-8,132.32,132.32,0,0,1,38.83-22.38,5.63,5.63,0,0,1,1.36-.33,6.45,6.45,0,0,0,5.37-3.75,5.88,5.88,0,0,0-.65-5,6.15,6.15,0,0,0-7.84-2.36l-13.93,6.54c-2-3.79-2.85-7.12-1.43-9.66,2.2-3.94-6.39-5-7.69-5.15a8.77,8.77,0,0,0-1.62,0c6.85-6.07,14.49-9.88,18.82-11,13.88-3.62,26.16-4.71,28.61-10.31,1.54-3.51-.15-9-2.84-10.14-2.28-1-4.69,1.32-8.06,3.26a19.64,19.64,0,0,1-5.94,2.36c-1.61-3.55-4.53-7.12-7.88-10.63,3.56-1.18,5.54-2.06,6.35-4.8,1-3.3-1.92-8.62-7.68-19.27l-.42-.76c5.05-5.8,14-5.82,17.83-12.92,1.52-2.78,1.82-10.58.24-12.33-1.32-1.45-3.4.28-5.22.69-4,.89-6.29,8.37-9.11,10.64a47.37,47.37,0,0,1-8.41,5.4c-2.47-4.82-4-9-2.34-11.94.61-1.11,1.72-2.11,1.4-3.27-.48-1.76-3.85-2.64-6.44-2.09-4.23.89-6.41,5.59-6.71,6.25-.87,1.88-1,5.32,7.55,24.41,1.48,3.29,1.8,3.9,1.68,5.06a5.16,5.16,0,0,1-1.1,2.68c-4.69-4.92-7.89-9.45-6.53-13.31,1.53-4.28-7.1-3.69-8.41-3.63a7.81,7.81,0,0,0-3.79,1.29c-3.62,2.63,5.36,9.87,13.9,19.37-3.59,2-9.14,4.4-17.57,7.6-7.74,2.93-14.73,12.23-17.19,13.29.44-3.59,3.92-14,4-14.38,1.65-6.59,3.11-6.89,9.74-20.85,5.78-12.2,2.33-7.05,9.25-22.9,2.47-5.66,4.23-9.35,3.12-13.83-.88-3.56-3.63-7.82-7-7.89-4-.08-7.7,5.7-7.68,10.45,0,3.63,2.25,5.09,1.72,8.78a11,11,0,0,1-3.33,6.07c-7.9,8.37-18.52,27.66-21.41,33.55a70.61,70.61,0,0,0-6.84,25.58c-1.37-2.44-2.88-5-4.6-7.84-1.95-3.2-3.53-5.66-4.84-7.59.18-4.86-3.29-15.35.18-29.44,3-12.38,9.21-18.44,6.09-23.55-2-3.26-7-4.84-9.52-3.17s-2.3,5.92-2.42,9a38.31,38.31,0,0,1-1.38,8.88A20,20,0,0,1,131,87.24c-1.85-5.18-.85-8.66-3.36-10.13a5.69,5.69,0,0,0-7,1.79c-1.16,1.73-.57,3.67,2.79,13.69,2.46,7.32,3.4,10,4.39,11.24-2.26,4.08-1,10.56-.65,15.17-1.67-.93-6.73-4.86-9-6.11-15.15-8.23-20.72-8.3-22.91-11.63-3.19-4.84,1.16-8.94-2.93-11.6-3-2-7.81-2.88-10.35-.59-3.74,3.37-1.23,12.39,1,17.23,2.82,6.22,6.94,9.63,17,16.7,17.13,12.11,23.79,15.38,28.36,20.74a28.65,28.65,0,0,1,3,4.27c3.43,5.83,4.8,16.66,4.8,16.66,1,7.41.41,11.1.19,12.33A30.7,30.7,0,0,1,135.2,181Zm67.36,1.44-19.46,9.15c.54-3.82,1-9.62,6.1-17.29a46,46,0,0,1,4.93-6.12C194.74,171.21,198.45,176.31,202.56,182.44ZM177.2,158.59c-2,1,19.34-18.9,24.14-21.8,2.79-1.69,5.58-3.09,5.58-3.09,1.93-1,3.59-1.7,4.79-2.2a31.53,31.53,0,0,1,3.71,9l-1,.22c-.4.1-8,1.9-9.11,2.19-5.43,1.39-9.22,5.83-17.92,10C183.35,154.9,178.4,158,177.2,158.59Z"/><path id="SHadow" class="cls-34" d="M147.86,104.13c2.85-13.24,9.33-18.81,5.94-23.89-2.08-3.13-7-4.76-9.29-3.21s-2.23,6-2.35,9.16a40,40,0,0,1-1.35,9,20.15,20.15,0,0,1-2.23-4.58c-1.8-5.24-.83-8.78-3.28-10.26-2.06-1.25-5.43-.36-6.82,1.81-1.12,1.75-.56,3.72,2.73,13.89,2.4,7.42,3.31,10.13,4.28,11.4-2.21,4.14-4,7.81-3.67,12.48-1.62-.93-6.36.35-8.62-.93-14.77-8.35-17.38-10.78-19.51-14.15-3.11-4.92,1.13-9.08-2.85-11.77-3-2-7.62-2.93-10.1-.61-3.65,3.42-1.2,12.58.93,17.49,2.74,6.31,6.77,9.76,16.53,16.94,20.64,15.16,25.7,16.66,30.56,25.37,1.93,3.44,3.76,9.43,4.68,16.89.33,2.61.65,4.94,1,7.06a24.25,24.25,0,0,0-1.76,4.87,27,27,0,0,0-.61,3.58,22.4,22.4,0,0,1-2.15-.86,67.08,67.08,0,0,0-7.59-3c-.86-3.42-6.93-9.41-9.66-22.36-1.92-9.13-.46-13.56-4.36-18.72-3-4-4.9-2.64-11.19-7.25-9.91-7.27-10.56-14.53-16.37-14.79-4.16-.19-8.81,3.31-9,6.64-.24,4.15,6.6,5.22,15.28,14.19,3.17,3.28,8.21,8.49,11,16.55,3.26,9.35-.13,9.92,3.18,16,.1.17.9.83,1,1a156,156,0,0,1-14-7c-11-7.46-9.69-6.34-12-5-3,1.71-.17,11.21,1.9,16.06,2.57,6,9.45,4.14,18.1,7.94,8.23,3.62,9.85,1.76,26.52,18.16a103.35,103.35,0,0,0,12.91,11c.51,3.27,1,6.76,1.23,10.52,1.81,24.32-23.49,30-18.46,39,8.85,15.83,66.79,14.62,77.2,1.86,8.6-10.54-20.29-20-21.75-44.27a52.08,52.08,0,0,1,7.43-8.1,128.13,128.13,0,0,1,37.87-22.71,5.43,5.43,0,0,1,1.32-.33,6.33,6.33,0,0,0,5.25-3.81,6.18,6.18,0,0,0-.64-5.06,5.87,5.87,0,0,0-7.65-2.39l-13.58,6.64c-1.95-3.85-2.78-7.23-1.4-9.81,2.15-4-6.23-5-7.5-5.22a8.33,8.33,0,0,0-1.58,0c6.69-6.16,14.14-10,18.36-11.17,13.54-3.67,25.51-4.78,27.9-10.46,1.5-3.56-.15-9.09-2.77-10.29-2.23-1-4.57,1.34-7.86,3.31a40,40,0,0,1-8.8,3.15c-1.57-3.6-1.41-8-4.68-11.54,3.48-1.19,5.41-2.09,6.19-4.87.95-3.34-1.87-8.74-7.49-19.55l-.4-.77c4.92-5.88,13.6-5.9,17.38-13.1,1.48-2.82,1.78-10.74.24-12.51-1.29-1.46-3.32.28-5.1.7-3.89.9-6.13,8.49-8.88,10.8a47.25,47.25,0,0,1-8.2,5.48c-2.41-4.89-3.86-9.16-2.28-12.12.6-1.13,1.67-2.14,1.36-3.32-.47-1.78-3.75-2.67-6.27-2.12-4.13.91-6.25,5.68-6.55,6.35-.85,1.9-1,5.39,7.36,24.76,1.44,3.33,1.76,4,1.64,5.13a5.34,5.34,0,0,1-1.07,2.71c-4.57-5-7.7-9.58-6.37-13.49,1.49-4.34-6.93-3.75-8.2-3.69a7.4,7.4,0,0,0-3.7,1.31c-3.53,2.67,5.23,10,13.56,19.65-3.5,2-8.92,4.46-17.14,7.71-7.54,3-14.36,12.4-16.76,13.48.42-3.64,3.82-14.22,3.91-14.58,1.61-6.69,3-7,9.49-21.16,5.65-12.38,2.28-7.15,9-23.23,2.4-5.74,4.12-9.48,3-14-.86-3.62-3.53-7.94-6.8-8-3.86-.08-7.51,5.79-7.49,10.6,0,3.69,2.19,5.17,1.68,8.91a11.27,11.27,0,0,1-3.26,6.15c-7.7,8.49-18.06,28.07-20.88,34a74.08,74.08,0,0,0-6.67,25.94,56.06,56.06,0,0,1-4.48-7.94C150.25,137,144,121.86,147.86,104.13Zm60.49,83.07-19,9.27c.52-3.87.94-9.75,5.95-17.54a47.56,47.56,0,0,1,4.81-6.21C200.72,175.8,204.34,181,208.35,187.2ZM183.62,163c-2,1,15.9-19.05,20.58-22,2.72-1.71,8.4-3.25,8.4-3.25,1.88-1,3.5-1.72,4.67-2.24a32.64,32.64,0,0,1,3.62,9.15l-1,.22c-.39.1-7.79,1.92-8.88,2.22-5.3,1.41-9,5.91-17.48,10.17C189.61,159.25,184.79,162.4,183.62,163Z"/><path class="cls-35" d="M137.57,181.67s-.2-.39-.28-.5a.57.57,0,0,1-.08-.15v0c-.85-2.54-15.92-14.28-19.52-25.58-2.2-6.89-.43-13.51-4.47-18.72-3.11-4-5-2.64-11.48-7.25C91.57,122.18,90.91,114.92,85,114.66c-4.27-.19-9,3.31-9.23,6.64-.25,4.15,6.76,5.22,15.66,14.19,3.26,3.28,8.43,8.49,11.31,16.55,3.34,9.35.08,12.71,3.47,18.75l.31.51a31.16,31.16,0,0,1-6.08-3.17c-11.33-7.46-13.93-9.85-16.3-8.51-3,1.71-4,8.59-1.83,13.44,2.64,6,9,6.67,17.85,10.47,8.44,3.62,10.81-.77,27.91,15.63,5.12,4.91,10.18,7.84,13.23,11,2.3,2.38,1,6.76,1.26,10.52,1.86,24.32-24.08,30-18.93,39,9.08,15.83,71.15,16.36,79.16,1.86,4.94-8.94-20.81-20-22.29-44.27a52.08,52.08,0,0,1,7.61-8.1,132.08,132.08,0,0,1,38.83-22.71,5.63,5.63,0,0,1,1.36-.33,6.45,6.45,0,0,0,5.37-3.81,6.2,6.2,0,0,0-8.49-7.45l-13.93,6.64c-2-3.85-2.85-7.23-1.43-9.81,2.2-4-6.39-5-7.69-5.22a8.77,8.77,0,0,0-1.62,0c6.85-6.16,14.49-10,18.82-11.17,13.88-3.67,26.16-4.78,28.61-10.46,1.54-3.56-.15-9.09-2.84-10.29-2.28-1-4.69,1.34-8.06,3.31a19.6,19.6,0,0,1-5.94,2.4c-1.61-3.6-4.53-7.23-7.88-10.79,3.56-1.19,5.54-2.09,6.35-4.87,1-3.34-1.92-8.74-7.68-19.55l-.42-.77c5.05-5.88,14-5.9,17.83-13.1,1.52-2.82,1.82-10.74.24-12.51-1.32-1.46-3.4.28-5.22.7-4,.9-6.29,8.49-9.11,10.8a48.94,48.94,0,0,1-8.41,5.48c-2.47-4.89-4-9.16-2.34-12.12.61-1.13,1.72-2.14,1.4-3.32-.48-1.78-3.85-2.67-6.44-2.12-4.23.91-6.41,5.68-6.71,6.35-.87,1.9-1,5.39,7.55,24.76,1.48,3.33,1.8,4,1.68,5.13a5.22,5.22,0,0,1-1.1,2.71c-4.69-5-7.89-9.58-6.53-13.49,1.53-4.34-7.1-3.75-8.41-3.69a7.71,7.71,0,0,0-3.79,1.31c-3.62,2.67,5.36,10,13.9,19.65-3.59,2-9.14,4.46-17.57,7.71-7.74,3-14.73,12.4-17.19,13.48.44-3.64,3.92-14.22,4-14.58,1.65-6.69,3.11-7,9.74-21.16,5.78-12.38,2.33-7.15,9.25-23.23,2.47-5.74,4.23-9.48,3.12-14-.88-3.62-3.63-7.94-7-8-4-.08-7.7,5.79-7.68,10.6,0,3.69,2.25,5.17,1.72,8.91a11.2,11.2,0,0,1-3.33,6.15c-7.9,8.49-18.52,28.07-21.41,34a72.48,72.48,0,0,0-6.84,25.94c-12.39-21.39-12.35-35.84-9.26-45.51,3-9.28,9.65-18,6.09-23.89-2-3.31-7-4.91-9.52-3.21s-2.3,6-2.42,9.16a39.32,39.32,0,0,1-1.38,9A20.16,20.16,0,0,1,134,87.61c-1.85-5.24-.85-8.78-3.36-10.26a5.64,5.64,0,0,0-7,1.81c-1.16,1.75-.57,3.72,2.79,13.89,2.46,7.42,3.4,10.13,4.39,11.4-2.26,4.14-2,10.87-1.65,15.55-1.67-.94-5.73-5.09-8-6.37-15.15-8.34-20.72-8.41-22.91-11.78-3.19-4.92,1.16-9.08-2.93-11.77-3-2-7.81-2.93-10.35-.61-3.74,3.42-1.23,12.58,1,17.49,2.82,6.31,6.94,9.76,17,16.94,17.13,12.28,23.79,15.6,28.36,21,.39.47.75.93,1.06,1.36a30.24,30.24,0,0,1,1.91,3,43.53,43.53,0,0,1,4.8,16.89C139.2,175,137.72,181.68,137.57,181.67Zm68,2.53-19.46,9.27c.54-3.87,1-9.75,6.1-17.54a47.52,47.52,0,0,1,4.93-6.21C197.74,172.8,201.45,178,205.56,184.2ZM180.2,160c-2,1,19.34-19.17,24.14-22.12,2.79-1.72,5.58-3.13,5.58-3.13,1.93-1,3.59-1.72,4.79-2.24a32.32,32.32,0,0,1,3.71,9.15l-1,.22c-.4.1-8,1.92-9.11,2.22-5.43,1.41-9.22,5.91-17.92,10.17C186.35,156.25,181.4,159.4,180.2,160Z"/><path class="cls-36" d="M146.45,264.67c-.33-1.35,18.87-9.62,32.4-10.15,14.33-.57,18.88,7.41,18.62,8.79-.21,1.12-2.68-3.16-19.22-2.74C161.28,261,146.73,265.82,146.45,264.67Z"/><path class="cls-36" d="M144,165.06c1.07.12,5.33,5.23,4.49,10.95-1,7.07-5.29,8.64-6.34,8.25-.81-.31-.47-.4,1.27-7.44C145.29,169.2,143,165,144,165.06Z"/><path class="cls-36" d="M86.2,164c-1.86.84-2.31,5.06-1,8,1,2.36,3,3.42,6,5,2.11,1.13,5.88,3.14,7,2,1.49-1.53-5.77-6.67-6-7C90.44,169.5,88.78,162.84,86.2,164Z"/><path class="cls-36" d="M79.2,119c.53-.43,3.44-2.72,7-2,3.83.78,6.69,4.68,6,6s-6.39-2.84-7-3C81.84,119.1,80.51,120.25,79.2,119Z"/><path class="cls-36" d="M95,93.27c.26-.85-1.83-2.52-4-3-.58-.13-3.41-.68-5,1-2.46,2.6.37,8.08,1,8,.4-.06-.37-2.37,1-4C90,92.85,94.61,94.46,95,93.27Z"/><path class="cls-36" d="M128.2,78c-.22-.37-2-.13-3,1a4.63,4.63,0,0,0-.75,3.7c.28,2.66,1.84,5.49,2.75,5.3.19,0-.23-.86-.68-3.24-.37-1.93.45-2.91.68-3.76C127.72,79.1,128.43,78.39,128.2,78Z"/><path class="cls-36" d="M198.2,168c1.19-1.62,6.52-.72,7,1,.29,1-3.78.42-5,1-.27.13.26,2.79-1,2A3.07,3.07,0,0,1,198.2,168Z"/><path class="cls-36" d="M228.63,178.71c.94.28,1.35,1.14,1.74.88s.5-2.08-.21-3c-1.28-1.65-4.59-.15-5.83.42-1.68.75-4.18,2.32-4,3.28.15.66,1.55.9,2.57.82C225.75,180.89,226.74,178.14,228.63,178.71Z"/><path class="cls-36" d="M131.36,127.49c-.41.74,2,2.81,4.17,8.11,1.4,3.39,1.38,4.83,2.85,6.43,1.69,1.84,4.05,2.51,4.4,1.73s-1.71-2.48-3.86-7.16c-1.58-3.44-1.4-4.59-2.85-6.43C134.28,127.92,131.74,126.8,131.36,127.49Z"/><path class="cls-36" d="M144.2,76a2.37,2.37,0,0,0-3-1c-.18.13-.32.33-.69,2.25-.17.89-.25,1.4-.31,1.75-.45,2.57-1.35,3.71-1,4s1.43-.56,2-1a7.39,7.39,0,0,0,3-4A2.71,2.71,0,0,0,144.2,76Z"/><path class="cls-36" d="M190.2,63c-1.4-.63-3.33,1.32-4,2-.91.91-2.64,2.66-2,4a2.38,2.38,0,0,0,3,1c1-.73-.19-2.87,1-4,1-1,2.6-.19,3-1A1.77,1.77,0,0,0,190.2,63Z"/><path class="cls-36" d="M238.2,80c-.55-.49-2.6,1-4,2s-3.28,2.37-3,3,2,.3,3,0a5.69,5.69,0,0,0,3-2C237.94,82,238.66,80.41,238.2,80Z"/><path class="cls-36" d="M211.55,80.89c0-.43-1.49-1.32-3-1a4.67,4.67,0,0,0-2.86,2.46c-1.41,2.28-1.91,5.47-1.08,5.88.17.08.35-.82,1.45-3,.89-1.75,2.14-2,2.85-2.55C210.49,81.47,211.49,81.34,211.55,80.89Z"/><path class="cls-36" d="M198.2,101c-.14-.42-3.17-.67-4,1s1.63,4.17,2,4-.63-1.54,0-3S198.3,101.31,198.2,101Z"/><path class="cls-36" d="M241,138c-1.55.51-3.93.85-3.76,2.43.1.87,1.22,1.63,2.21,1.77,3,.42,6.17-4.61,5.41-5.63C244.52,136.06,242.23,137.63,241,138Z"/></g></g></svg>